<svg width="50" height="50" viewBox="0 0 50 50" fill="none" xmlns="http://www.w3.org/2000/svg">
<rect width="50" height="50" rx="25" fill="#159F12"/>
<g clip-path="url(#clip0_5365_1515)">
<path d="M35.6381 14.4808C32.827 11.6821 29.0879 10.1407 25.1029 10.1387C16.8938 10.1387 10.2133 16.7786 10.2093 24.9412C10.2083 27.5498 10.8944 30.0971 12.1968 32.3414L10.1227 37.7725C9.60585 39.1279 10.9223 40.4624 12.2944 39.9753L17.9792 37.9537C20.155 39.1318 22.6045 39.7535 25.0959 39.7545H25.1019C33.31 39.7545 39.9925 33.1146 39.9955 24.952C39.9975 20.997 38.4511 17.2786 35.6381 14.4808ZM25.1029 36.8439H25.0979C22.9511 36.8439 20.846 36.2707 19.0088 35.1867L18.5717 34.9283L14.043 36.1093L15.2508 31.7207L14.967 31.2712C13.7691 29.3773 13.1358 27.1894 13.1378 24.9421C13.1408 18.3844 18.508 13.0503 25.1079 13.0503C28.3033 13.0513 31.3085 14.2907 33.5669 16.538C35.8263 18.7863 37.069 21.7751 37.068 24.952C37.066 31.5098 31.6978 36.8439 25.1029 36.8439Z" fill="white"/>
<path d="M17.9601 25.803C16.9694 25.803 16.2693 26.7603 16.5641 27.7008C17.4384 30.4926 19.6539 32.6954 22.462 33.5646C23.408 33.8576 24.3709 33.1627 24.3709 32.1766C24.3709 31.5361 23.9477 30.9757 23.3323 30.7847C21.4423 30.1976 19.9507 28.7146 19.3602 26.8356C19.169 26.2237 18.6054 25.803 17.9601 25.803ZM17.9601 24.2843C18.6044 24.2843 19.168 23.8636 19.3602 23.2518C19.9507 21.3727 21.4423 19.8897 23.3323 19.3027C23.9477 19.1116 24.3709 18.5512 24.3709 17.9107C24.3709 16.9257 23.408 16.2297 22.462 16.5227C19.6539 17.392 17.4384 19.5947 16.5641 22.3865C16.2703 23.327 16.9694 24.2843 17.9601 24.2843ZM32.3101 24.2843C33.3009 24.2843 34.0009 23.327 33.7061 22.3865C32.8319 19.5947 30.6163 17.392 27.8082 16.5227C26.8623 16.2297 25.8994 16.9247 25.8994 17.9107C25.8994 18.5512 26.3226 19.1116 26.9379 19.3027C28.8279 19.8897 30.3195 21.3727 30.91 23.2518C31.1022 23.8626 31.6648 24.2843 32.3101 24.2843ZM25.8994 32.1766C25.8994 33.1617 26.8623 33.8576 27.8082 33.5646C30.6163 32.6954 32.8319 30.4926 33.7061 27.7008C34.0009 26.7603 33.3019 25.803 32.3101 25.803C31.6658 25.803 31.1022 26.2237 30.91 26.8356C30.3195 28.7146 28.8279 30.1976 26.9379 30.7847C26.3226 30.9757 25.8994 31.5361 25.8994 32.1766Z" fill="white"/>
</g>
<defs>
<clipPath id="clip0_5365_1515">
<rect width="30" height="30" fill="white" transform="translate(10 10)"/>
</clipPath>
</defs>
</svg>
