<svg width="50" height="50" viewBox="0 0 50 50" fill="none" xmlns="http://www.w3.org/2000/svg">
<rect width="50" height="50" rx="25" fill="url(#paint0_radial_3504_1573)"/>
<rect width="50" height="50" rx="25" fill="url(#paint1_radial_3504_1573)"/>
<path d="M25.002 20.385C22.4481 20.385 20.3881 22.4455 20.3881 25C20.3881 27.5545 22.4481 29.615 25.002 29.615C27.5559 29.615 29.616 27.5545 29.616 25C29.616 22.4455 27.5559 20.385 25.002 20.385ZM25.002 28.0003C23.3516 28.0003 22.0023 26.6548 22.0023 25C22.0023 23.3452 23.3476 21.9997 25.002 21.9997C26.6564 21.9997 28.0017 23.3452 28.0017 25C28.0017 26.6548 26.6524 28.0003 25.002 28.0003ZM30.8809 20.1963C30.8809 20.7947 30.399 21.2727 29.8047 21.2727C29.2064 21.2727 28.7285 20.7907 28.7285 20.1963C28.7285 19.6018 29.2104 19.1198 29.8047 19.1198C30.399 19.1198 30.8809 19.6018 30.8809 20.1963ZM33.9368 21.2887C33.8685 19.8468 33.5392 18.5696 32.4831 17.5172C31.431 16.4649 30.154 16.1356 28.7124 16.0633C27.2267 15.9789 22.7733 15.9789 21.2876 16.0633C19.85 16.1315 18.573 16.4609 17.5169 17.5132C16.4608 18.5655 16.1355 19.8428 16.0632 21.2847C15.9789 22.7708 15.9789 27.2251 16.0632 28.7113C16.1315 30.1532 16.4608 31.4304 17.5169 32.4828C18.573 33.5351 19.846 33.8644 21.2876 33.9367C22.7733 34.0211 27.2267 34.0211 28.7124 33.9367C30.154 33.8685 31.431 33.5391 32.4831 32.4828C33.5352 31.4304 33.8645 30.1532 33.9368 28.7113C34.0211 27.2251 34.0211 22.7749 33.9368 21.2887ZM32.0173 30.3058C31.7041 31.093 31.0977 31.6995 30.3066 32.0168C29.122 32.4868 26.3111 32.3783 25.002 32.3783C23.6929 32.3783 20.878 32.4828 19.6974 32.0168C18.9103 31.7036 18.304 31.0971 17.9867 30.3058C17.5169 29.1209 17.6253 26.3094 17.6253 25C17.6253 23.6906 17.5209 20.875 17.9867 19.6942C18.2999 18.907 18.9063 18.3005 19.6974 17.9832C20.882 17.5132 23.6929 17.6217 25.002 17.6217C26.3111 17.6217 29.126 17.5172 30.3066 17.9832C31.0937 18.2964 31.7001 18.9029 32.0173 19.6942C32.4871 20.8791 32.3787 23.6906 32.3787 25C32.3787 26.3094 32.4871 29.125 32.0173 30.3058Z" fill="white"/>
<defs>
<radialGradient id="paint0_radial_3504_1573" cx="0" cy="0" r="1" gradientUnits="userSpaceOnUse" gradientTransform="translate(42.25 56.75) rotate(-115.776) scale(68.1842 101.416)">
<stop offset="0.24392" stop-color="#FF1B90"/>
<stop offset="0.436673" stop-color="#F80261"/>
<stop offset="0.688476" stop-color="#ED00C0"/>
<stop offset="0.776787" stop-color="#C500E9"/>
<stop offset="0.893155" stop-color="#7017FF"/>
</radialGradient>
<radialGradient id="paint1_radial_3504_1573" cx="0" cy="0" r="1" gradientUnits="userSpaceOnUse" gradientTransform="translate(18.125 48.275) rotate(-57.4396) scale(29.5435 30.7295)">
<stop stop-color="#FFD600"/>
<stop offset="0.484375" stop-color="#FF6930"/>
<stop offset="0.734375" stop-color="#FE3B36"/>
<stop offset="1" stop-color="#FE3B36" stop-opacity="0"/>
</radialGradient>
</defs>
</svg>
