<svg width="50" height="50" viewBox="0 0 50 50" fill="none" xmlns="http://www.w3.org/2000/svg">
<rect width="50" height="50" rx="25" fill="#072967"/>
<path d="M36.3839 11.7188H13.6101C12.5666 11.7188 11.7188 12.5785 11.7188 13.6339V36.3661C11.7188 37.4215 12.5666 38.2813 13.6101 38.2813H36.3839C37.4275 38.2813 38.2813 37.4215 38.2813 36.3661V13.6339C38.2813 12.5785 37.4275 11.7188 36.3839 11.7188ZM19.7468 34.4866H15.8098V21.8101H19.7527V34.4866H19.7468ZM17.7783 20.0788C16.5154 20.0788 15.4956 19.0531 15.4956 17.7961C15.4956 16.5391 16.5154 15.5134 17.7783 15.5134C19.0353 15.5134 20.061 16.5391 20.061 17.7961C20.061 19.059 19.0412 20.0788 17.7783 20.0788ZM34.5044 34.4866H30.5675V28.3203C30.5675 26.8499 30.5378 24.9585 28.5219 24.9585C26.4704 24.9585 26.1562 26.5594 26.1562 28.2136V34.4866H22.2192V21.8101H25.9961V23.5414H26.0495C26.5771 22.5453 27.8638 21.4959 29.7789 21.4959C33.7633 21.4959 34.5044 24.1225 34.5044 27.5377V34.4866Z" fill="white"/>
</svg>
