<svg width="50" height="50" viewBox="0 0 50 50" fill="none" xmlns="http://www.w3.org/2000/svg">
<rect width="50" height="50" rx="25" fill="#FE0002"/>
<path d="M34.6034 21.0346C34.3843 20.2323 33.7408 19.6026 32.9233 19.3893C31.4414 19 25.5 19 25.5 19C25.5 19 19.5586 19 18.0767 19.3893C17.2592 19.6026 16.6157 20.2323 16.3966 21.0346C16 22.487 16 25.5135 16 25.5135C16 25.5135 16 28.5401 16.3966 29.9924C16.6157 30.7948 17.2592 31.3974 18.0767 31.6107C19.5586 32 25.5 32 25.5 32C25.5 32 31.4414 32 32.9233 31.6107C33.7408 31.3974 34.3843 30.7914 34.6034 29.9924C35 28.5401 35 25.5135 35 25.5135C35 25.5135 35 22.487 34.6034 21.0346ZM23.559 28.2625V22.7646L28.5229 25.5135L23.559 28.2625Z" fill="white"/>
</svg>
