<svg width="40" height="40" viewBox="0 0 40 40" fill="none" xmlns="http://www.w3.org/2000/svg">
<rect width="40" height="40" rx="20" fill="#999999"/>
<g clip-path="url(#clip0_3579_1549)">
<path d="M9.89873 30.1013C10.5012 30.7046 11.2169 31.1829 12.0048 31.5087C12.7927 31.8346 13.6373 32.0015 14.4899 32C15.3427 32.0015 16.1874 31.8345 16.9755 31.5087C17.7636 31.1828 18.4796 30.7046 19.0823 30.1013L22.7552 26.4273L20.9188 24.5909L17.2459 28.2649C16.514 28.9935 15.5233 29.4025 14.4905 29.4025C13.4578 29.4025 12.4671 28.9935 11.7352 28.2649C11.0059 27.5334 10.5964 26.5426 10.5964 25.5097C10.5964 24.4768 11.0059 23.486 11.7352 22.7545L15.4094 19.0818L13.5729 17.2454L9.89873 20.9181C8.68284 22.1369 8 23.7882 8 25.5097C8 27.2313 8.68284 28.8825 9.89873 30.1013ZM30.1023 19.0818C31.3176 17.8627 32 16.2115 32 14.4902C32 12.7689 31.3176 11.1178 30.1023 9.89864C28.8835 8.6828 27.2322 8 25.5105 8C23.7889 8 22.1376 8.6828 20.9188 9.89864L17.2459 13.5727L19.0823 15.409L22.7552 11.735C23.4871 11.0064 24.4778 10.5974 25.5105 10.5974C26.5433 10.5974 27.534 11.0064 28.2659 11.735C28.9951 12.4665 29.4046 13.4573 29.4046 14.4902C29.4046 15.5231 28.9951 16.5139 28.2659 17.2454L24.5917 20.9181L26.4281 22.7545L30.1023 19.0818Z" fill="white"/>
<path d="M15.715 26L14 24.2861L24.2862 14L26 15.7152L15.715 26Z" fill="white"/>
</g>
<defs>
<clipPath id="clip0_3579_1549">
<rect width="24" height="24" fill="white" transform="translate(8 8)"/>
</clipPath>
</defs>
</svg>
