<svg width="40" height="40" viewBox="0 0 40 40" fill="none" xmlns="http://www.w3.org/2000/svg">
<rect width="40" height="40" rx="20" fill="#6081C4"/>
<rect x="10" y="8" width="20" height="23" rx="10" fill="white"/>
<path d="M33 18.5503C33 11.0659 27.1805 5 20 5C12.8195 5 7 11.0659 7 18.5503C7 24.902 11.1996 30.2374 16.8617 31.7036V22.6895H14.1805V18.5503H16.8617V16.7665C16.8617 12.1562 18.8625 10.0178 23.2094 10.0178C24.032 10.0178 25.4539 10.1872 26.0379 10.3566V14.1041C25.7332 14.0723 25.2 14.0512 24.5348 14.0512C22.402 14.0512 21.5793 14.8928 21.5793 17.0788V18.5503H25.8246L25.0934 22.6895H21.5742V32C28.0133 31.1902 33 25.4789 33 18.5503Z" fill="#6081C4"/>
</svg>
