<svg width="40" height="40" viewBox="0 0 40 40" fill="none" xmlns="http://www.w3.org/2000/svg">
<rect width="40" height="40" rx="20" fill="#27A6E6"/>
<rect x="9.52734" y="10.8223" width="18.3529" height="18.3529" fill="white"/>
<path d="M20 5.625C12.059 5.625 5.625 11.9191 5.625 19.6875C5.625 27.4559 12.059 33.75 20 33.75C27.941 33.75 34.375 27.4559 34.375 19.6875C34.375 11.9191 27.941 5.625 20 5.625ZM26.6658 15.1909C26.4514 17.4137 25.5123 22.8119 25.037 25.3012C24.8342 26.3558 24.44 26.7074 24.0575 26.7414C23.2228 26.8151 22.591 26.2027 21.7795 25.6811C20.5159 24.8702 19.7971 24.3655 18.5741 23.5717C17.154 22.6588 18.0756 22.1541 18.8813 21.3319C19.0958 21.1164 22.7707 17.8446 22.8402 17.5498C22.8518 17.5101 22.8576 17.374 22.7707 17.3003C22.6837 17.2266 22.562 17.2549 22.4751 17.2719C22.3475 17.2984 20.3265 18.6045 16.412 21.1901C15.8401 21.5757 15.3204 21.7629 14.8528 21.7515C14.3369 21.7402 13.3516 21.468 12.6154 21.2355C11.717 20.952 10.9982 20.7989 11.062 20.3112C11.0929 20.058 11.4504 19.799 12.1343 19.5344C16.3232 17.7501 19.117 16.5726 20.5159 16.0018C24.5096 14.38 25.3385 14.0965 25.8775 14.0852C25.9992 14.0852 26.2601 14.1135 26.434 14.2496C26.5475 14.3472 26.6198 14.4827 26.6368 14.6295C26.6682 14.815 26.6779 15.0033 26.6658 15.1909Z" fill="#27A6E6"/>
</svg>
