<svg width="40" height="40" viewBox="0 0 40 40" fill="none" xmlns="http://www.w3.org/2000/svg">
<rect width="40" height="40" rx="20" fill="#00A51B"/>
<path d="M28.5378 11.6734C26.2576 9.47232 23.2208 8.26172 19.9936 8.26172C13.3324 8.26172 7.912 13.4814 7.912 19.896C7.912 21.9451 8.4671 23.9471 9.52288 25.7132L7.80859 31.74L14.214 30.1206C15.9773 31.0482 17.9637 31.5356 19.9882 31.5356H19.9936C26.6494 31.5356 32.1895 26.3159 32.1895 19.9013C32.1895 16.7936 30.8181 13.8745 28.5378 11.6734ZM19.9936 29.5756C18.1868 29.5756 16.4181 29.1092 14.878 28.2287L14.5134 28.0191L10.7147 28.9781L11.727 25.4092L11.4875 25.0424C10.4807 23.5016 9.95281 21.725 9.95281 19.896C9.95281 14.5663 14.4589 10.227 19.9991 10.227C22.6821 10.227 25.2018 11.2332 27.0957 13.0622C28.9895 14.8912 30.1542 17.3176 30.1487 19.9013C30.1487 25.2363 25.5283 29.5756 19.9936 29.5756ZM25.5011 22.333C25.2018 22.1862 23.7161 21.484 23.4385 21.3896C23.161 21.2901 22.9596 21.2429 22.7583 21.5364C22.5569 21.8298 21.98 22.4797 21.8004 22.6788C21.6263 22.8727 21.4467 22.8989 21.1474 22.7522C19.3732 21.898 18.2086 21.2272 17.0385 19.2934C16.7283 18.7798 17.3487 18.8165 17.9256 17.7054C18.0236 17.5115 17.9746 17.3438 17.8984 17.1971C17.8222 17.0503 17.2181 15.6196 16.9678 15.0379C16.7229 14.4719 16.4725 14.5505 16.2875 14.5401C16.1134 14.5296 15.912 14.5296 15.7106 14.5296C15.5093 14.5296 15.1827 14.6029 14.9052 14.8912C14.6276 15.1847 13.8494 15.8869 13.8494 17.3176C13.8494 18.7483 14.9324 20.1319 15.0793 20.3258C15.2317 20.5197 17.2072 23.4545 20.2385 24.7175C22.1542 25.514 22.9052 25.5822 23.863 25.4459C24.4453 25.3621 25.6481 24.7437 25.8984 24.0624C26.1487 23.3811 26.1487 22.7994 26.0725 22.6788C26.0018 22.5478 25.8004 22.4745 25.5011 22.333Z" fill="white"/>
</svg>
